<svg width="35" height="35" viewBox="0 0 35 35" fill="none" xmlns="http://www.w3.org/2000/svg">
<path d="M24.8449 0H10.1726C3.79939 0 0 3.7975 0 10.1675V24.815C0 31.2025 3.79939 35 10.1726 35H24.8274C31.2005 35 34.9999 31.2025 34.9999 24.8325V10.1675C35.0174 3.7975 31.2181 0 24.8449 0ZM17.5087 24.29C13.7619 24.29 10.7153 21.245 10.7153 17.5C10.7153 13.755 13.7619 10.71 17.5087 10.71C21.2556 10.71 24.3021 13.755 24.3021 17.5C24.3021 21.245 21.2556 24.29 17.5087 24.29ZM27.8739 8.54C27.7863 8.75 27.6638 8.9425 27.5062 9.1175C27.3311 9.275 27.1385 9.3975 26.9284 9.485C26.7183 9.5725 26.4907 9.625 26.2631 9.625C25.7904 9.625 25.3526 9.45 25.02 9.1175C24.8624 8.9425 24.7398 8.75 24.6523 8.54C24.5647 8.33 24.5122 8.1025 24.5122 7.875C24.5122 7.6475 24.5647 7.42 24.6523 7.21C24.7398 6.9825 24.8624 6.8075 25.02 6.6325C25.4227 6.23 26.0355 6.0375 26.5958 6.16C26.7183 6.1775 26.8234 6.2125 26.9284 6.265C27.0335 6.3 27.1385 6.3525 27.2436 6.4225C27.3311 6.475 27.4187 6.5625 27.5062 6.6325C27.6638 6.8075 27.7863 6.9825 27.8739 7.21C27.9614 7.42 28.014 7.6475 28.014 7.875C28.014 8.1025 27.9614 8.33 27.8739 8.54Z" fill="#91B602"/>
</svg>
